<svg width="16" height="16" viewBox="0 0 16 16" fill="none" xmlns="http://www.w3.org/2000/svg">
<g clip-path="url(#clip0_3233_95)">
<path d="M9.0197 5.56791C8.63809 5.83997 8.17109 6 7.66671 6C6.37804 6 5.33337 4.95533 5.33337 3.66667C5.33337 2.378 6.37804 1.33334 7.66671 1.33334C8.50203 1.33334 9.23484 1.77228 9.64705 2.4321M4.00004 13.3914H5.74023C5.96713 13.3914 6.19263 13.4184 6.41258 13.4724L8.2513 13.9193C8.65027 14.0165 9.06589 14.0259 9.46902 13.9476L11.502 13.5521C12.0391 13.4475 12.5331 13.1903 12.9203 12.8137L14.3586 11.4145C14.7694 11.0156 14.7694 10.3683 14.3586 9.96871C13.9888 9.60896 13.4032 9.56846 12.9848 9.87354L11.3084 11.0966C11.0684 11.2721 10.7762 11.3666 10.4758 11.3666H8.85704L9.88742 11.3665C10.4682 11.3665 10.9386 10.9089 10.9386 10.3439V10.1394C10.9386 9.67034 10.6104 9.26131 10.1428 9.14792L8.55244 8.76116C8.29363 8.69839 8.02858 8.66667 7.76213 8.66667C7.11893 8.66667 5.95464 9.19921 5.95464 9.19921L4.00004 10.0166M13.3334 4.33334C13.3334 5.622 12.2887 6.66667 11 6.66667C9.71138 6.66667 8.66671 5.622 8.66671 4.33334C8.66671 3.04467 9.71138 2 11 2C12.2887 2 13.3334 3.04467 13.3334 4.33334ZM1.33337 9.73334L1.33337 13.6C1.33337 13.9734 1.33337 14.1601 1.40604 14.3027C1.46995 14.4281 1.57194 14.5301 1.69738 14.594C1.83999 14.6667 2.02667 14.6667 2.40004 14.6667H2.93337C3.30674 14.6667 3.49343 14.6667 3.63603 14.594C3.76148 14.5301 3.86346 14.4281 3.92738 14.3027C4.00004 14.1601 4.00004 13.9734 4.00004 13.6V9.73334C4.00004 9.35997 4.00004 9.17328 3.92738 9.03068C3.86346 8.90523 3.76148 8.80325 3.63603 8.73933C3.49343 8.66667 3.30674 8.66667 2.93337 8.66667L2.40004 8.66667C2.02667 8.66667 1.83999 8.66667 1.69738 8.73933C1.57194 8.80325 1.46995 8.90523 1.40604 9.03068C1.33337 9.17328 1.33337 9.35997 1.33337 9.73334Z" stroke="currentColor" stroke-width="1.33333" stroke-linecap="round" stroke-linejoin="round"/>
</g>
<defs>
<clipPath id="clip0_3233_95">
<rect width="16" height="16" fill="white"/>
</clipPath>
</defs>
</svg>
