<svg width="16" height="16" viewBox="0 0 16 16" fill="none" xmlns="http://www.w3.org/2000/svg">
<path d="M1.66694 8.66666H5.66694M10.3336 8.66666H14.3336M8.00028 4.66666V14M8.00028 4.66666C8.92075 4.66666 9.66694 3.92047 9.66694 2.99999M8.00028 4.66666C7.0798 4.66666 6.33361 3.92047 6.33361 3M2.66694 14L13.3336 14M2.66694 3L6.33361 3M6.33361 3C6.33361 2.07952 7.0798 1.33333 8.00028 1.33333C8.92075 1.33333 9.66694 2.07952 9.66694 2.99999M9.66694 2.99999L13.3336 2.99999M5.92057 9.55757C5.65344 10.5804 4.74568 11.3333 3.66694 11.3333C2.58821 11.3333 1.68045 10.5804 1.41332 9.55757C1.39149 9.474 1.38058 9.43221 1.37952 9.26524C1.37888 9.16289 1.41692 8.9269 1.44969 8.82994C1.50315 8.67176 1.56101 8.58248 1.67675 8.40391L3.66694 5.33333L5.65714 8.40391C5.77287 8.58248 5.83074 8.67176 5.8842 8.82994C5.91697 8.9269 5.95501 9.16289 5.95436 9.26524C5.95331 9.43221 5.94239 9.474 5.92057 9.55757ZM14.5872 9.55757C14.3201 10.5804 13.4123 11.3333 12.3336 11.3333C11.2549 11.3333 10.3471 10.5804 10.08 9.55757C10.0582 9.474 10.0472 9.43221 10.0462 9.26524C10.0455 9.16289 10.0836 8.9269 10.1164 8.82994C10.1698 8.67176 10.2277 8.58248 10.3434 8.40391L12.3336 5.33333L14.3238 8.40391C14.4395 8.58248 14.4974 8.67176 14.5509 8.82994C14.5836 8.9269 14.6217 9.16289 14.621 9.26524C14.62 9.43221 14.6091 9.474 14.5872 9.55757Z" stroke="currentColor" stroke-width="1.33333" stroke-linecap="round" stroke-linejoin="round"/>
</svg>
